2014001_C3_05_grf
version=1
nRows=37
nColumns=19
inDegrees=no
endheader
time	ground_force_1_vx	ground_force_1_vy	ground_force_1_vz	ground_force_1_px	ground_force_1_py	ground_force_1_pz	ground_force_1_mx	ground_force_1_my	ground_force_1_mz	ground_force_2_vx	ground_force_2_vy	ground_force_2_vz	ground_force_2_px	ground_force_2_py	ground_force_2_pz	ground_force_2_mx	ground_force_2_my	ground_force_2_mz
      0.43000000	     34.87860151	    520.66510916	      1.08831376	      0.13598208	     -0.00200000	      0.22760879	      0.00000000	      0.78913574	      0.00000000	      0.00000000	      0.00000000	      0.00000000	      0.00000000	      0.00000000	      0.00000000	      0.00000000	      0.00000000	      0.00000000
      0.43100000	     34.99620501	    521.69218659	      1.51233224	      0.13599174	     -0.00200000	      0.22775706	      0.00000000	      0.80036828	      0.00000000	      0.00000000	      0.00000000	      0.00000000	      0.00000000	      0.00000000	      0.00000000	      0.00000000	      0.00000000	      0.00000000
      0.43200000	     35.11510976	    522.73964882	      1.93753780	      0.13600179	     -0.00200000	      0.22790486	      0.00000000	      0.81152100	      0.00000000	      0.00000000	      0.00000000	      0.00000000	      0.00000000	      0.00000000	      0.00000000	      0.00000000	      0.00000000	      0.00000000
      0.43300000	     35.23562867	    523.81300926	      2.36427935	      0.13601234	     -0.00200000	      0.22805203	      0.00000000	      0.82258737	      0.00000000	      0.00000000	      0.00000000	      0.00000000	      0.00000000	      0.00000000	      0.00000000	      0.00000000	      0.00000000	      0.00000000
      0.43400000	     35.35742536	    524.90741014	      2.79228995	      0.13602334	     -0.00200000	      0.22819867	      0.00000000	      0.83359619	      0.00000000	      0.00000000	      0.00000000	      0.00000000	      0.00000000	      0.00000000	      0.00000000	      0.00000000	      0.00000000	      0.00000000
      0.43500000	     35.48078537	    526.02851391	      3.22193699	      0.13603489	     -0.00200000	      0.22834463	      0.00000000	      0.84454790	      0.00000000	      0.00000000	      0.00000000	      0.00000000	      0.00000000	      0.00000000	      0.00000000	      0.00000000	      0.00000000	      0.00000000
      0.43600000	     35.60535535	    527.17119455	      3.65293375	      0.13604690	     -0.00200000	      0.22849004	      0.00000000	      0.85546760	      0.00000000	      0.00000000	      0.00000000	      0.00000000	      0.00000000	      0.00000000	      0.00000000	      0.00000000	      0.00000000	      0.00000000
      0.43700000	     35.73137391	    528.34123373	      4.08566976	      0.13605954	     -0.00200000	      0.22863472	      0.00000000	      0.86636843	      0.00000000	      0.00000000	      0.00000000	      0.00000000	      0.00000000	      0.00000000	      0.00000000	      0.00000000	      0.00000000	      0.00000000
      0.43800000	     35.85849553	    529.53338623	      4.51983651	      0.13607269	     -0.00200000	      0.22877881	      0.00000000	      0.87727425	      0.00000000	      0.00000000	      0.00000000	      0.00000000	      0.00000000	      0.00000000	      0.00000000	      0.00000000	      0.00000000	      0.00000000
      0.43900000	     35.98691840	    530.75343370	      4.95583797	      0.13608654	     -0.00200000	      0.22892212	      0.00000000	      0.88821400	      0.00000000	      0.00000000	      0.00000000	      0.00000000	      0.00000000	      0.00000000	      0.00000000	      0.00000000	      0.00000000	      0.00000000
      0.44000000	     36.11631654	    531.99601173	      5.39334351	      0.13610096	     -0.00200000	      0.22906478	      0.00000000	      0.89920463	      0.00000000	      0.00000000	      0.00000000	      0.00000000	      0.00000000	      0.00000000	      0.00000000	      0.00000000	      0.00000000	      0.00000000
      0.44100000	     36.24685947	    533.26690197	      5.83277852	      0.13611611	     -0.00200000	      0.22920661	      0.00000000	      0.91029093	      0.00000000	      0.00000000	      0.00000000	      0.00000000	      0.00000000	      0.00000000	      0.00000000	      0.00000000	      0.00000000	      0.00000000
      0.44200000	     36.37825511	    534.56062078	      6.27380377	      0.13613188	     -0.00200000	      0.22934775	      0.00000000	      0.92147934	      0.00000000	      0.00000000	      0.00000000	      0.00000000	      0.00000000	      0.00000000	      0.00000000	      0.00000000	      0.00000000	      0.00000000
      0.44300000	     36.51062995	    535.88318825	      6.71688979	      0.13614844	     -0.00200000	      0.22948801	      0.00000000	      0.93282536	      0.00000000	      0.00000000	      0.00000000	      0.00000000	      0.00000000	      0.00000000	      0.00000000	      0.00000000	      0.00000000	      0.00000000
      0.44400000	     36.64371930	    537.22894192	      7.16169225	      0.13616565	     -0.00200000	      0.22962756	      0.00000000	      0.94432005	      0.00000000	      0.00000000	      0.00000000	      0.00000000	      0.00000000	      0.00000000	      0.00000000	      0.00000000	      0.00000000	      0.00000000
      0.44500000	     36.77760400	    538.60390186	      7.60873081	      0.13618370	     -0.00200000	      0.22976623	      0.00000000	      0.95602751	      0.00000000	      0.00000000	      0.00000000	      0.00000000	      0.00000000	      0.00000000	      0.00000000	      0.00000000	      0.00000000	      0.00000000
      0.44600000	     36.91204675	    540.00240564	      8.05763714	      0.13620244	     -0.00200000	      0.22990421	      0.00000000	      0.96792664	      0.00000000	      0.00000000	      0.00000000	      0.00000000	      0.00000000	      0.00000000	      0.00000000	      0.00000000	      0.00000000	      0.00000000
      0.44700000	     37.04709318	    541.43047333	      8.50899378	      0.13622208	     -0.00200000	      0.23004132	      0.00000000	      0.98009143	      0.00000000	      0.00000000	      0.00000000	      0.00000000	      0.00000000	      0.00000000	      0.00000000	      0.00000000	      0.00000000	      0.00000000
      0.44800000	     37.18254119	    542.88220406	      8.96241423	      0.13624241	     -0.00200000	      0.23017775	      0.00000000	      0.99248951	      0.00000000	      0.00000000	      0.00000000	      0.00000000	      0.00000000	      0.00000000	      0.00000000	      0.00000000	      0.00000000	      0.00000000
      0.44900000	     37.31841426	    544.36349869	      9.41856811	      0.13626363	     -0.00200000	      0.23031334	      0.00000000	      1.00520434	      0.00000000	      0.00000000	      0.00000000	      0.00000000	      0.00000000	      0.00000000	      0.00000000	      0.00000000	      0.00000000	      0.00000000
      0.45000000	     37.45456114	    545.86851597	      9.87704191	      0.13628554	     -0.00200000	      0.23044826	      0.00000000	      1.01819220	      0.00000000	      0.00000000	      0.00000000	      0.00000000	      0.00000000	      0.00000000	      0.00000000	      0.00000000	      0.00000000	      0.00000000
      0.45100000	     37.59098444	    547.40309715	     10.33860352	      0.13630832	     -0.00200000	      0.23058238	      0.00000000	      1.03154382	      0.00000000	      0.00000000	      0.00000000	      0.00000000	      0.00000000	      0.00000000	      0.00000000	      0.00000000	      0.00000000	      0.00000000
      0.45200000	     37.72757463	    548.96134138	     10.80279797	      0.13633180	     -0.00200000	      0.23071587	      0.00000000	      1.04520348	      0.00000000	      0.00000000	      0.00000000	      0.00000000	      0.00000000	      0.00000000	      0.00000000	      0.00000000	      0.00000000	      0.00000000
      0.45300000	     37.86431346	    550.54903030	     11.27050351	      0.13635613	     -0.00200000	      0.23084857	      0.00000000	      1.05926694	      0.00000000	      0.00000000	      0.00000000	      0.00000000	      0.00000000	      0.00000000	      0.00000000	      0.00000000	      0.00000000	      0.00000000
      0.45400000	     38.00113052	    552.16026306	     11.74120605	      0.13638113	     -0.00200000	      0.23098065	      0.00000000	      1.07366576	     -0.00000000	      0.00000000	      0.00000000	      0.00000000	      0.00000000	      0.00000000	      0.00000000	      0.00000000	      0.00000000	      0.00000000
      0.45500000	     38.13799713	    553.80079150	     12.21590815	      0.13640692	     -0.00200000	      0.23111198	      0.00000000	      1.08849669	     -0.00000000	      0.00000000	      0.00000000	      0.00000000	      0.00000000	      0.00000000	      0.00000000	      0.00000000	      0.00000000	      0.00000000
      0.45600000	     38.27487417	    555.46450615	     12.69402541	      0.13643329	     -0.00200000	      0.23124270	     -0.00000000	      1.10368268	      0.00000000	      0.00000000	      0.00000000	      0.00000000	      0.00000000	      0.00000000	      0.00000000	      0.00000000	      0.00000000	      0.00000000
      0.45700000	     38.41172904	    557.15712905	     13.17669032	      0.13646037	     -0.00200000	      0.23137266	      0.00000000	      1.11932614	      0.00000000	      0.00000000	      0.00000000	      0.00000000	      0.00000000	      0.00000000	      0.00000000	      0.00000000	      0.00000000	      0.00000000
      0.45800000	     38.54855523	    558.87264013	     13.66321929	      0.13648795	     -0.00200000	      0.23150202	      0.00000000	      1.13534681	      0.00000000	      0.00000000	      0.00000000	      0.00000000	      0.00000000	      0.00000000	      0.00000000	      0.00000000	      0.00000000	      0.00000000
      0.45900000	     38.68532404	    560.61643362	     14.15486960	      0.13651611	     -0.00200000	      0.23163066	      0.00000000	      1.15185283	      0.00000000	      0.00000000	      0.00000000	      0.00000000	      0.00000000	      0.00000000	      0.00000000	      0.00000000	      0.00000000	      0.00000000
      0.46000000	     38.82204592	    562.38263845	     14.65085056	      0.13654468	     -0.00200000	      0.23175873	     -0.00000000	      1.16875787	      0.00000000	      0.00000000	      0.00000000	      0.00000000	      0.00000000	      0.00000000	      0.00000000	      0.00000000	      0.00000000	      0.00000000
      0.46100000	     38.95871565	    564.17647004	     15.15254006	      0.13657371	     -0.00200000	      0.23188612	      0.00000000	      1.18617426	      0.00000000	      0.00000000	      0.00000000	      0.00000000	      0.00000000	      0.00000000	      0.00000000	      0.00000000	      0.00000000	      0.00000000
      0.46200000	     39.09536190	    565.99211693	     15.65903239	      0.13660306	     -0.00200000	      0.23201300	      0.00000000	      1.20400874	      0.00000000	      0.00000000	      0.00000000	      0.00000000	      0.00000000	      0.00000000	      0.00000000	      0.00000000	      0.00000000	      0.00000000
      0.46300000	     39.23201468	    567.83452630	     16.17182326	      0.13663275	     -0.00200000	      0.23213923	     -0.00000000	      1.22237420	      0.00000000	      0.00000000	      0.00000000	      0.00000000	      0.00000000	      0.00000000	      0.00000000	      0.00000000	      0.00000000	      0.00000000
      0.46400000	     39.36870396	    569.69803572	     16.68989286	      0.13666266	     -0.00200000	      0.23226498	      0.00000000	      1.24116889	      0.00000000	      0.00000000	      0.00000000	      0.00000000	      0.00000000	      0.00000000	      0.00000000	      0.00000000	      0.00000000	      0.00000000
      0.46500000	     39.50549234	    571.58744335	     17.21485611	      0.13669276	     -0.00200000	      0.23239012	      0.00000000	      1.26050303	      0.00000000	      0.00000000	      0.00000000	      0.00000000	      0.00000000	      0.00000000	      0.00000000	      0.00000000	      0.00000000	      0.00000000
      0.46600000	     39.64241110	    573.49723577	     17.74556935	      0.13672299	     -0.00200000	      0.23251480	      0.00000000	      1.28026877	      0.00000000	      0.00000000	      0.00000000	      0.00000000	      0.00000000	      0.00000000	      0.00000000	      0.00000000	      0.00000000	      0.00000000
